# xmcd
#
# Track frame offsets:
#	150
#	70729
#	89351
#	138798
#	187154
#	197586
#
# Disc length: 2980 seconds
#
# Revision: 0
# Processed by: cddbd v1.5.2PL0 Copyright (c) Steve Scherf et al.
# Submitted via: audiograbber 1.83.01
#
DISCID=4f0ba206
DTITLE=Grateful Dead - 93-06-25 Robert F Kennedy Stadium, Washington DC
DYEAR=1900
DGENRE=
TTITLE0=Space
TTITLE1=Sugar Magnolia
TTITLE2=Wharf Rat
TTITLE3=Sugar Magnolia
TTITLE4=Crowd
TTITLE5=The Weight
EXTD=
EXTT0=
EXTT1=
EXTT2=
EXTT3=
EXTT4=
EXTT5=
PLAYORDER=
